<svg width="16" height="16" viewBox="0 0 16 16" fill="none" xmlns="http://www.w3.org/2000/svg">
<path fill-rule="evenodd" clip-rule="evenodd" d="M7.68945 0C11.9293 0 15.3781 3.3727 15.3781 7.51907C15.3781 9.47532 14.6104 11.2595 13.3542 12.5986L15.8261 15.0109C16.0574 15.2371 16.0582 15.6031 15.8269 15.8294C15.7116 15.9436 15.5592 16 15.4076 16C15.2568 16 15.1052 15.9436 14.9892 15.8309L12.4874 13.3912C11.1714 14.4219 9.5028 15.0389 7.68945 15.0389C3.44955 15.0389 0 11.6655 0 7.51907C0 3.3727 3.44955 0 7.68945 0ZM7.68945 1.15821C4.10251 1.15821 1.18433 4.01125 1.18433 7.51907C1.18433 11.0269 4.10251 13.8807 7.68945 13.8807C11.2756 13.8807 14.1938 11.0269 14.1938 7.51907C14.1938 4.01125 11.2756 1.15821 7.68945 1.15821Z" fill="#78828A"/>
</svg>
